<mxfile host="app.diagrams.net" modified="2024-05-06T06:57:49.406Z" agent="Mozilla/5.0 (Windows NT 10.0; Win64; x64) AppleWebKit/537.36 (KHTML, like Gecko) Chrome/124.0.0.0 Safari/537.36" etag="cM1EqUNP-mLgd-VO4S7O" version="24.3.1" type="device">
  <diagram name="Page-1" id="hDQYSgxrAIpLP1oEQl-T">
    <mxGraphModel dx="1554" dy="814" grid="1" gridSize="10" guides="1" tooltips="1" connect="1" arrows="1" fold="1" page="1" pageScale="1" pageWidth="850" pageHeight="1100" math="0" shadow="0">
      <root>
        <mxCell id="0" />
        <mxCell id="1" parent="0" />
        <mxCell id="HMcroM5DdTJB_tqUM0iG-1" value="Product" style="rounded=0;whiteSpace=wrap;html=1;" vertex="1" parent="1">
          <mxGeometry x="350" y="230" width="120" height="60" as="geometry" />
        </mxCell>
        <mxCell id="HMcroM5DdTJB_tqUM0iG-14" style="edgeStyle=orthogonalEdgeStyle;rounded=0;orthogonalLoop=1;jettySize=auto;html=1;endArrow=none;endFill=0;" edge="1" parent="1" source="HMcroM5DdTJB_tqUM0iG-2" target="HMcroM5DdTJB_tqUM0iG-1">
          <mxGeometry relative="1" as="geometry" />
        </mxCell>
        <mxCell id="HMcroM5DdTJB_tqUM0iG-2" value="Stock" style="ellipse;whiteSpace=wrap;html=1;" vertex="1" parent="1">
          <mxGeometry x="350" y="90" width="120" height="80" as="geometry" />
        </mxCell>
        <mxCell id="HMcroM5DdTJB_tqUM0iG-30" style="rounded=0;orthogonalLoop=1;jettySize=auto;html=1;entryX=1;entryY=0.5;entryDx=0;entryDy=0;endArrow=none;endFill=0;" edge="1" parent="1" source="HMcroM5DdTJB_tqUM0iG-4" target="HMcroM5DdTJB_tqUM0iG-29">
          <mxGeometry relative="1" as="geometry" />
        </mxCell>
        <mxCell id="HMcroM5DdTJB_tqUM0iG-43" value="1" style="edgeLabel;html=1;align=center;verticalAlign=middle;resizable=0;points=[];" vertex="1" connectable="0" parent="HMcroM5DdTJB_tqUM0iG-30">
          <mxGeometry x="-0.5222" y="-1" relative="1" as="geometry">
            <mxPoint as="offset" />
          </mxGeometry>
        </mxCell>
        <mxCell id="HMcroM5DdTJB_tqUM0iG-4" value="Customer" style="rounded=0;whiteSpace=wrap;html=1;" vertex="1" parent="1">
          <mxGeometry x="570" y="720" width="120" height="60" as="geometry" />
        </mxCell>
        <mxCell id="HMcroM5DdTJB_tqUM0iG-6" style="rounded=0;orthogonalLoop=1;jettySize=auto;html=1;entryX=1;entryY=0.5;entryDx=0;entryDy=0;endArrow=none;endFill=0;" edge="1" parent="1" source="HMcroM5DdTJB_tqUM0iG-5" target="HMcroM5DdTJB_tqUM0iG-4">
          <mxGeometry relative="1" as="geometry" />
        </mxCell>
        <mxCell id="HMcroM5DdTJB_tqUM0iG-5" value="&lt;u&gt;ID&lt;/u&gt;" style="ellipse;whiteSpace=wrap;html=1;" vertex="1" parent="1">
          <mxGeometry x="760" y="780" width="120" height="80" as="geometry" />
        </mxCell>
        <mxCell id="HMcroM5DdTJB_tqUM0iG-9" style="rounded=0;orthogonalLoop=1;jettySize=auto;html=1;entryX=1;entryY=0.5;entryDx=0;entryDy=0;endArrow=none;endFill=0;" edge="1" parent="1" source="HMcroM5DdTJB_tqUM0iG-7" target="HMcroM5DdTJB_tqUM0iG-4">
          <mxGeometry relative="1" as="geometry">
            <mxPoint x="680" y="720" as="targetPoint" />
          </mxGeometry>
        </mxCell>
        <mxCell id="HMcroM5DdTJB_tqUM0iG-7" value="Phone" style="ellipse;whiteSpace=wrap;html=1;" vertex="1" parent="1">
          <mxGeometry x="760" y="630" width="120" height="80" as="geometry" />
        </mxCell>
        <mxCell id="HMcroM5DdTJB_tqUM0iG-10" value="Suppiler" style="rounded=0;whiteSpace=wrap;html=1;" vertex="1" parent="1">
          <mxGeometry x="700" y="230" width="120" height="60" as="geometry" />
        </mxCell>
        <mxCell id="HMcroM5DdTJB_tqUM0iG-15" style="edgeStyle=orthogonalEdgeStyle;rounded=0;orthogonalLoop=1;jettySize=auto;html=1;endArrow=none;endFill=0;" edge="1" parent="1" source="HMcroM5DdTJB_tqUM0iG-11" target="HMcroM5DdTJB_tqUM0iG-10">
          <mxGeometry relative="1" as="geometry" />
        </mxCell>
        <mxCell id="HMcroM5DdTJB_tqUM0iG-11" value="Name" style="ellipse;whiteSpace=wrap;html=1;" vertex="1" parent="1">
          <mxGeometry x="700" y="60" width="120" height="80" as="geometry" />
        </mxCell>
        <mxCell id="HMcroM5DdTJB_tqUM0iG-16" style="edgeStyle=orthogonalEdgeStyle;rounded=0;orthogonalLoop=1;jettySize=auto;html=1;entryX=0.5;entryY=1;entryDx=0;entryDy=0;endArrow=none;endFill=0;" edge="1" parent="1" source="HMcroM5DdTJB_tqUM0iG-13" target="HMcroM5DdTJB_tqUM0iG-10">
          <mxGeometry relative="1" as="geometry" />
        </mxCell>
        <mxCell id="HMcroM5DdTJB_tqUM0iG-13" value="&lt;u&gt;ID&lt;/u&gt;" style="ellipse;whiteSpace=wrap;html=1;" vertex="1" parent="1">
          <mxGeometry x="700" y="380" width="120" height="80" as="geometry" />
        </mxCell>
        <mxCell id="HMcroM5DdTJB_tqUM0iG-18" style="rounded=0;orthogonalLoop=1;jettySize=auto;html=1;entryX=1;entryY=0.5;entryDx=0;entryDy=0;endArrow=none;endFill=0;" edge="1" parent="1" source="HMcroM5DdTJB_tqUM0iG-17" target="HMcroM5DdTJB_tqUM0iG-10">
          <mxGeometry relative="1" as="geometry" />
        </mxCell>
        <mxCell id="HMcroM5DdTJB_tqUM0iG-17" value="contact" style="ellipse;whiteSpace=wrap;html=1;" vertex="1" parent="1">
          <mxGeometry x="890" y="220" width="120" height="80" as="geometry" />
        </mxCell>
        <mxCell id="HMcroM5DdTJB_tqUM0iG-20" value="M" style="edgeStyle=orthogonalEdgeStyle;rounded=0;orthogonalLoop=1;jettySize=auto;html=1;entryX=1;entryY=0.5;entryDx=0;entryDy=0;endArrow=none;endFill=0;" edge="1" parent="1" source="HMcroM5DdTJB_tqUM0iG-19" target="HMcroM5DdTJB_tqUM0iG-1">
          <mxGeometry relative="1" as="geometry" />
        </mxCell>
        <mxCell id="HMcroM5DdTJB_tqUM0iG-21" value="N" style="edgeStyle=orthogonalEdgeStyle;rounded=0;orthogonalLoop=1;jettySize=auto;html=1;endArrow=none;endFill=0;" edge="1" parent="1" source="HMcroM5DdTJB_tqUM0iG-19" target="HMcroM5DdTJB_tqUM0iG-10">
          <mxGeometry relative="1" as="geometry" />
        </mxCell>
        <mxCell id="HMcroM5DdTJB_tqUM0iG-19" value="suppiles" style="rhombus;whiteSpace=wrap;html=1;" vertex="1" parent="1">
          <mxGeometry x="520" y="220" width="120" height="80" as="geometry" />
        </mxCell>
        <mxCell id="HMcroM5DdTJB_tqUM0iG-32" style="edgeStyle=orthogonalEdgeStyle;rounded=0;orthogonalLoop=1;jettySize=auto;html=1;entryX=0.5;entryY=1;entryDx=0;entryDy=0;endArrow=none;endFill=0;" edge="1" parent="1" source="HMcroM5DdTJB_tqUM0iG-22" target="HMcroM5DdTJB_tqUM0iG-1">
          <mxGeometry relative="1" as="geometry" />
        </mxCell>
        <mxCell id="HMcroM5DdTJB_tqUM0iG-38" value="N" style="edgeLabel;html=1;align=center;verticalAlign=middle;resizable=0;points=[];" vertex="1" connectable="0" parent="HMcroM5DdTJB_tqUM0iG-32">
          <mxGeometry x="0.5222" relative="1" as="geometry">
            <mxPoint as="offset" />
          </mxGeometry>
        </mxCell>
        <mxCell id="HMcroM5DdTJB_tqUM0iG-41" value="M" style="edgeLabel;html=1;align=center;verticalAlign=middle;resizable=0;points=[];" vertex="1" connectable="0" parent="HMcroM5DdTJB_tqUM0iG-32">
          <mxGeometry x="-0.6278" relative="1" as="geometry">
            <mxPoint as="offset" />
          </mxGeometry>
        </mxCell>
        <mxCell id="HMcroM5DdTJB_tqUM0iG-47" style="edgeStyle=orthogonalEdgeStyle;rounded=0;orthogonalLoop=1;jettySize=auto;html=1;endArrow=none;endFill=0;" edge="1" parent="1" source="HMcroM5DdTJB_tqUM0iG-22" target="HMcroM5DdTJB_tqUM0iG-46">
          <mxGeometry relative="1" as="geometry" />
        </mxCell>
        <mxCell id="HMcroM5DdTJB_tqUM0iG-22" value="OrderItem" style="rounded=0;whiteSpace=wrap;html=1;" vertex="1" parent="1">
          <mxGeometry x="350" y="410" width="120" height="60" as="geometry" />
        </mxCell>
        <mxCell id="HMcroM5DdTJB_tqUM0iG-31" style="rounded=0;orthogonalLoop=1;jettySize=auto;html=1;entryX=0.5;entryY=1;entryDx=0;entryDy=0;endArrow=none;endFill=0;exitX=0.5;exitY=0;exitDx=0;exitDy=0;" edge="1" parent="1" source="HMcroM5DdTJB_tqUM0iG-48" target="HMcroM5DdTJB_tqUM0iG-22">
          <mxGeometry relative="1" as="geometry" />
        </mxCell>
        <mxCell id="HMcroM5DdTJB_tqUM0iG-42" value="N" style="edgeLabel;html=1;align=center;verticalAlign=middle;resizable=0;points=[];" vertex="1" connectable="0" parent="HMcroM5DdTJB_tqUM0iG-31">
          <mxGeometry x="0.4952" relative="1" as="geometry">
            <mxPoint as="offset" />
          </mxGeometry>
        </mxCell>
        <mxCell id="HMcroM5DdTJB_tqUM0iG-52" value="1" style="edgeLabel;html=1;align=center;verticalAlign=middle;resizable=0;points=[];" vertex="1" connectable="0" parent="HMcroM5DdTJB_tqUM0iG-31">
          <mxGeometry x="-0.4733" y="3" relative="1" as="geometry">
            <mxPoint as="offset" />
          </mxGeometry>
        </mxCell>
        <mxCell id="HMcroM5DdTJB_tqUM0iG-50" style="edgeStyle=orthogonalEdgeStyle;rounded=0;orthogonalLoop=1;jettySize=auto;html=1;entryX=0.5;entryY=1;entryDx=0;entryDy=0;endArrow=none;endFill=0;" edge="1" parent="1" source="HMcroM5DdTJB_tqUM0iG-29" target="HMcroM5DdTJB_tqUM0iG-48">
          <mxGeometry relative="1" as="geometry" />
        </mxCell>
        <mxCell id="HMcroM5DdTJB_tqUM0iG-51" value="N" style="edgeLabel;html=1;align=center;verticalAlign=middle;resizable=0;points=[];" vertex="1" connectable="0" parent="HMcroM5DdTJB_tqUM0iG-50">
          <mxGeometry x="0.0444" y="-2" relative="1" as="geometry">
            <mxPoint as="offset" />
          </mxGeometry>
        </mxCell>
        <mxCell id="HMcroM5DdTJB_tqUM0iG-29" value="takes" style="rhombus;whiteSpace=wrap;html=1;" vertex="1" parent="1">
          <mxGeometry x="370" y="710" width="80" height="80" as="geometry" />
        </mxCell>
        <mxCell id="HMcroM5DdTJB_tqUM0iG-34" style="rounded=0;orthogonalLoop=1;jettySize=auto;html=1;endArrow=none;endFill=0;" edge="1" parent="1" source="HMcroM5DdTJB_tqUM0iG-33" target="HMcroM5DdTJB_tqUM0iG-22">
          <mxGeometry relative="1" as="geometry" />
        </mxCell>
        <mxCell id="HMcroM5DdTJB_tqUM0iG-33" value="&lt;u&gt;ID&lt;/u&gt;" style="ellipse;whiteSpace=wrap;html=1;" vertex="1" parent="1">
          <mxGeometry x="120" y="370" width="120" height="80" as="geometry" />
        </mxCell>
        <mxCell id="HMcroM5DdTJB_tqUM0iG-36" style="rounded=0;orthogonalLoop=1;jettySize=auto;html=1;entryX=0;entryY=0.5;entryDx=0;entryDy=0;endArrow=none;endFill=0;" edge="1" parent="1" source="HMcroM5DdTJB_tqUM0iG-35" target="HMcroM5DdTJB_tqUM0iG-22">
          <mxGeometry relative="1" as="geometry" />
        </mxCell>
        <mxCell id="HMcroM5DdTJB_tqUM0iG-35" value="Price" style="ellipse;whiteSpace=wrap;html=1;" vertex="1" parent="1">
          <mxGeometry x="120" y="460" width="120" height="80" as="geometry" />
        </mxCell>
        <mxCell id="HMcroM5DdTJB_tqUM0iG-45" style="edgeStyle=orthogonalEdgeStyle;rounded=0;orthogonalLoop=1;jettySize=auto;html=1;entryX=0;entryY=0.5;entryDx=0;entryDy=0;endArrow=none;endFill=0;" edge="1" parent="1" source="HMcroM5DdTJB_tqUM0iG-44" target="HMcroM5DdTJB_tqUM0iG-1">
          <mxGeometry relative="1" as="geometry">
            <Array as="points">
              <mxPoint x="290" y="260" />
              <mxPoint x="290" y="260" />
            </Array>
          </mxGeometry>
        </mxCell>
        <mxCell id="HMcroM5DdTJB_tqUM0iG-44" value="&lt;u&gt;ID&lt;/u&gt;" style="ellipse;whiteSpace=wrap;html=1;" vertex="1" parent="1">
          <mxGeometry x="120" y="220" width="120" height="80" as="geometry" />
        </mxCell>
        <mxCell id="HMcroM5DdTJB_tqUM0iG-46" value="Quantity" style="ellipse;whiteSpace=wrap;html=1;" vertex="1" parent="1">
          <mxGeometry x="530" y="400" width="120" height="80" as="geometry" />
        </mxCell>
        <mxCell id="HMcroM5DdTJB_tqUM0iG-48" value="Bill" style="rounded=0;whiteSpace=wrap;html=1;" vertex="1" parent="1">
          <mxGeometry x="350" y="580" width="120" height="60" as="geometry" />
        </mxCell>
        <mxCell id="HMcroM5DdTJB_tqUM0iG-54" style="rounded=0;orthogonalLoop=1;jettySize=auto;html=1;endArrow=none;endFill=0;" edge="1" parent="1" source="HMcroM5DdTJB_tqUM0iG-53" target="HMcroM5DdTJB_tqUM0iG-48">
          <mxGeometry relative="1" as="geometry" />
        </mxCell>
        <mxCell id="HMcroM5DdTJB_tqUM0iG-53" value="Total" style="ellipse;whiteSpace=wrap;html=1;" vertex="1" parent="1">
          <mxGeometry x="120" y="570" width="120" height="80" as="geometry" />
        </mxCell>
        <mxCell id="HMcroM5DdTJB_tqUM0iG-56" style="edgeStyle=orthogonalEdgeStyle;rounded=0;orthogonalLoop=1;jettySize=auto;html=1;entryX=1;entryY=0.5;entryDx=0;entryDy=0;endArrow=none;endFill=0;" edge="1" parent="1" source="HMcroM5DdTJB_tqUM0iG-55" target="HMcroM5DdTJB_tqUM0iG-48">
          <mxGeometry relative="1" as="geometry" />
        </mxCell>
        <mxCell id="HMcroM5DdTJB_tqUM0iG-55" value="&lt;u&gt;ID&lt;/u&gt;" style="ellipse;whiteSpace=wrap;html=1;" vertex="1" parent="1">
          <mxGeometry x="550" y="570" width="120" height="80" as="geometry" />
        </mxCell>
        <mxCell id="HMcroM5DdTJB_tqUM0iG-59" style="rounded=0;orthogonalLoop=1;jettySize=auto;html=1;entryX=0.5;entryY=0;entryDx=0;entryDy=0;endArrow=none;endFill=0;" edge="1" parent="1" source="HMcroM5DdTJB_tqUM0iG-58" target="HMcroM5DdTJB_tqUM0iG-1">
          <mxGeometry relative="1" as="geometry" />
        </mxCell>
        <mxCell id="HMcroM5DdTJB_tqUM0iG-58" value="Price" style="ellipse;whiteSpace=wrap;html=1;" vertex="1" parent="1">
          <mxGeometry x="130" y="90" width="120" height="80" as="geometry" />
        </mxCell>
      </root>
    </mxGraphModel>
  </diagram>
</mxfile>
